<?xml version="1.0" encoding="UTF-8"?>
<svg id="Layer_1" xmlns="http://www.w3.org/2000/svg" xmlns:xlink="http://www.w3.org/1999/xlink" version="1.1" viewBox="0 0 48 48">
  <!-- Generator: Adobe Illustrator 29.8.1, SVG Export Plug-In . SVG Version: 2.1.1 Build 2)  -->
  <defs>
    <style>
      .st0 {
        fill: url(#linear-gradient1);
      }

      .st1 {
        fill: url(#linear-gradient);
      }
    </style>
    <linearGradient id="linear-gradient" x1="18.73" y1="42.43" x2="25.24" y2="5.54" gradientTransform="translate(0 50) scale(1 -1)" gradientUnits="userSpaceOnUse">
      <stop offset="0" stop-color="#fd7420"/>
      <stop offset="1" stop-color="#ce5100"/>
    </linearGradient>
    <linearGradient id="linear-gradient1" x1="36.98" y1="45.84" x2="39.04" y2="34.17" gradientTransform="translate(0 50) scale(1 -1)" gradientUnits="userSpaceOnUse">
      <stop offset="0" stop-color="#fd7420"/>
      <stop offset="1" stop-color="#ce5100"/>
    </linearGradient>
  </defs>
  <path class="st1" d="M23.3,7.94l2.6,7.1c1.2,3.28,3.78,5.86,7.06,7.06l7.1,2.6c1.23.45,1.23,2.19,0,2.64l-7.1,2.6c-3.28,1.2-5.86,3.78-7.06,7.06l-2.6,7.1c-.45,1.23-2.19,1.23-2.64,0l-2.6-7.1c-1.2-3.28-3.78-5.86-7.06-7.06l-7.1-2.6c-1.23-.45-1.23-2.19,0-2.64l7.1-2.6c3.28-1.2,5.86-3.78,7.06-7.06l2.6-7.1c.45-1.23,2.19-1.23,2.64,0Z"/>
  <path class="st0" d="M38.82,4.6l.62,2.05c.28.92,1,1.63,1.91,1.91l2.05.62c.8.24.8,1.38,0,1.63l-2.05.62c-.92.28-1.63,1-1.91,1.91l-.62,2.05c-.24.8-1.38.8-1.63,0l-.62-2.05c-.28-.92-1-1.63-1.91-1.91l-2.05-.62c-.8-.24-.8-1.38,0-1.63l2.05-.62c.92-.28,1.63-1,1.91-1.91l.62-2.05c.24-.8,1.38-.8,1.63,0Z"/>
</svg>